<svg xmlns="http://www.w3.org/2000/svg" viewBox="0 0 1000 835"><rect width="1000" height="835" fill="#dfe7e3"></rect><path d="M444.6 715.1L449.4 716.2L453.0 719.0L447.5 720.1L442.4 716.1L444.6 715.1ZM588.8 385.3L594.8 398.2L614.7 398.0L617.3 401.7L619.2 409.5L626.2 417.6L623.6 421.0L626.1 423.9L635.6 425.7L637.7 435.1L642.9 437.1L647.5 442.0L653.7 444.8L658.9 449.7L654.7 448.9L656.0 454.8L660.2 457.3L660.5 463.8L657.9 468.8L659.0 475.9L664.2 482.7L667.2 483.7L669.3 492.7L676.1 502.9L680.6 507.7L686.6 506.2L688.9 509.1L692.6 508.1L688.4 515.0L695.9 516.3L696.5 521.1L720.9 551.7L722.1 552.4L787.4 560.7L789.5 558.5L801.1 578.2L784.1 631.4L706.5 658.2L632.6 668.4L607.6 680.7L592.8 698.9L588.7 708.8L582.5 712.3L576.8 712.4L570.0 703.9L560.0 705.3L537.0 702.9L530.0 699.8L510.3 700.1L502.6 701.8L493.5 702.0L487.0 697.6L484.1 697.6L478.2 702.6L476.9 713.2L479.4 717.2L474.9 723.5L468.6 727.8L467.2 719.9L462.1 714.5L462.2 711.1L456.9 706.6L455.9 699.2L444.8 689.5L440.8 687.1L434.5 677.2L433.5 672.4L427.6 666.1L428.7 662.5L425.8 659.2L421.1 648.9L420.8 644.6L416.7 642.1L416.9 639.0L412.6 636.9L409.9 632.1L398.1 623.7L394.4 624.2L387.2 619.0L383.6 611.3L378.2 606.5L372.5 596.0L374.9 593.6L372.5 585.5L369.1 579.6L370.6 577.5L372.5 562.8L365.6 551.0L360.1 535.0L358.5 535.8L356.3 529.2L346.6 521.4L336.2 515.3L332.3 515.9L330.5 511.2L322.6 500.0L325.9 497.0L324.7 490.6L318.7 484.1L320.7 484.1L314.0 475.1L310.0 472.4L310.8 467.8L306.7 466.2L298.8 451.2L293.6 443.4L288.5 438.2L287.9 435.6L281.4 428.2L279.6 423.3L272.5 411.5L268.3 409.7L257.8 410.3L258.5 405.3L261.8 398.3L261.2 394.5L265.6 375.2L293.3 379.8L305.2 371.2L312.4 360.7L330.9 357.1L335.1 348.1L344.1 342.9L331.2 328.5L317.6 314.7L369.5 300.4L374.3 296.8L405.9 301.9L408.8 303.2L450.0 326.5L470.3 343.0L517.8 379.4L560.9 383.3L565.4 382.4L588.8 385.3Z" fill="#f3e8d5" stroke="#d8c5a8" stroke-width="1" stroke-linejoin="round"></path><path d="M667.6 461.8L671.2 463.3L669.9 474.3L667.1 468.8L667.6 461.8Z" fill="#f3e8d5" stroke="#d8c5a8" stroke-width="1" stroke-linejoin="round"></path><path d="M33.0 59.7L27.9 61.6L25.3 60.6L31.7 57.1L33.0 59.7ZM42.6 12.0L43.7 8.8L47.6 8.5L48.1 5.3L58.2 3.2L60.5 0.7L66.9 0.2L74.0 6.1L80.7 3.2L86.2 3.9L85.0 8.6L87.9 14.0L95.7 20.2L109.2 25.7L114.5 26.7L111.2 33.8L101.1 34.6L91.9 31.3L84.7 34.7L73.4 34.3L70.9 39.1L64.4 45.2L51.6 50.6L50.0 53.5L38.1 62.8L40.6 58.5L39.4 54.7L55.4 46.1L54.4 44.3L47.0 46.3L35.9 45.8L34.8 42.0L43.2 35.0L42.6 26.1L50.4 22.3L49.4 15.0L42.6 12.0ZM290.5 186.6L292.2 183.7L287.4 174.7L290.7 171.0L297.7 166.4L297.7 160.6L293.4 156.9L287.7 161.3L284.6 161.7L283.2 166.3L275.9 168.1L261.0 160.1L255.4 161.6L243.0 172.0L240.0 177.9L237.7 174.9L232.9 180.0L218.6 180.3L210.0 183.4L198.7 179.0L190.0 168.2L172.2 160.3L155.3 157.9L152.3 161.1L152.3 168.6L147.8 176.9L144.1 175.1L129.0 180.6L127.2 178.1L120.8 177.2L115.4 173.9L112.5 168.1L114.1 164.5L110.0 162.0L107.6 165.3L101.8 163.5L101.4 160.1L92.8 159.0L93.2 162.3L88.6 166.4L85.0 163.8L86.9 161.7L78.9 161.8L77.2 164.8L69.2 164.0L75.9 160.6L87.2 160.3L86.5 156.9L90.5 156.4L93.6 153.1L82.8 153.8L74.4 155.4L71.2 153.8L66.6 155.8L68.2 151.0L72.2 151.9L75.8 146.5L71.8 147.2L71.2 143.0L65.3 144.1L65.3 136.9L60.1 134.8L66.3 132.4L66.0 125.2L58.5 122.9L56.3 123.6L53.6 118.3L49.2 121.6L40.0 116.7L46.3 113.8L42.9 106.2L47.0 105.3L50.2 109.3L51.3 115.7L53.8 113.9L62.1 112.8L58.2 111.8L52.5 103.2L57.0 102.9L60.9 96.6L56.1 97.3L56.8 92.6L49.7 86.5L57.9 80.1L57.1 77.1L35.9 80.5L37.8 75.9L39.1 64.2L42.0 63.9L44.5 58.6L53.0 52.2L60.2 52.5L67.6 50.5L71.5 54.7L80.3 54.7L77.5 49.4L79.5 48.1L86.6 50.0L83.2 52.3L105.7 52.3L110.5 53.5L115.6 51.2L105.8 48.6L111.2 44.8L126.1 43.4L135.7 41.4L120.8 41.2L117.9 37.5L112.4 34.5L113.4 29.2L117.6 26.5L134.5 29.3L141.0 29.5L144.5 27.5L159.1 31.4L169.4 31.1L173.7 27.7L173.8 24.1L192.7 15.5L196.1 11.7L205.2 8.0L213.3 6.7L223.6 2.5L249.6 4.7L259.0 4.7L264.1 2.9L265.6 0.0L270.5 2.5L269.3 4.7L272.7 10.4L280.6 14.4L291.7 11.2L295.9 14.6L296.3 19.7L304.5 26.5L308.8 22.4L318.3 24.9L319.7 28.3L325.5 29.4L333.7 32.8L336.6 29.6L341.8 34.5L353.2 36.4L363.1 35.3L368.6 32.6L377.5 32.4L381.6 30.5L385.8 33.2L399.6 36.3L408.4 32.4L414.5 30.9L417.8 27.8L422.8 27.0L432.4 22.2L435.8 18.1L443.3 20.9L446.8 18.3L459.4 20.6L462.8 16.5L469.3 16.3L474.1 22.1L478.8 24.9L480.0 28.6L484.0 28.2L485.9 33.2L489.7 35.0L492.9 43.8L488.6 50.3L492.7 59.4L491.2 61.1L500.7 64.2L506.5 63.1L511.9 65.3L520.8 75.4L514.6 71.6L511.8 73.6L510.4 81.7L501.5 82.7L501.9 88.8L504.7 90.4L503.5 95.0L507.0 99.5L507.4 113.4L511.8 115.2L505.6 125.8L505.6 128.6L509.7 129.2L515.3 133.3L514.6 141.4L520.6 145.9L519.7 150.4L514.8 149.7L507.8 155.3L504.5 152.1L505.7 147.1L499.6 145.3L497.1 147.9L486.5 147.4L476.2 143.7L472.4 145.2L466.8 144.0L462.7 150.3L457.3 151.3L457.2 147.9L453.5 145.0L448.4 149.4L434.7 152.4L427.5 152.7L419.5 151.0L414.7 151.6L401.3 158.1L390.3 162.3L376.7 164.7L361.8 162.9L358.2 159.5L349.5 157.4L330.2 165.4L319.1 165.3L317.8 161.9L309.9 159.7L306.6 169.6L310.0 177.4L302.5 177.5L302.1 184.3L297.9 185.6L296.4 189.5L290.5 186.6Z" fill="#f3e8d5" stroke="#d8c5a8" stroke-width="1" stroke-linejoin="round"></path><path d="M879.2 626.8L878.9 621.8L882.5 618.8L885.2 613.0L887.0 617.4L882.8 623.7L879.2 626.8ZM817.8 489.5L816.6 490.1L816.6 487.4L819.5 487.9L817.8 489.5ZM812.5 466.8L815.2 461.7L818.5 462.4L819.9 457.8L823.1 462.0L819.1 463.7L821.8 470.5L818.3 475.0L817.8 478.7L814.5 477.9L815.3 468.1L812.5 466.8ZM820.5 496.6L826.4 509.8L834.8 520.1L840.4 524.5L860.0 531.0L863.4 530.8L873.0 533.7L875.0 532.6L882.7 536.6L890.3 548.9L893.5 551.3L895.9 556.1L902.0 561.8L908.9 563.1L910.0 565.5L908.7 572.2L904.9 579.5L901.1 584.1L896.9 592.7L892.4 594.7L886.1 600.6L879.9 609.1L875.8 620.2L873.1 621.8L867.6 620.5L869.1 615.6L865.0 615.9L861.5 622.5L857.7 626.0L858.3 628.4L854.5 637.9L854.7 643.4L856.4 647.1L855.9 650.9L858.2 657.7L854.7 659.5L841.8 660.5L834.2 663.1L827.6 668.8L825.1 680.7L819.4 686.4L815.4 685.8L801.6 687.5L796.1 688.9L790.5 697.5L792.4 700.2L791.2 705.2L785.3 710.9L779.3 712.5L774.1 710.2L759.4 711.6L758.2 713.6L752.4 714.7L747.9 717.8L741.7 718.2L735.2 720.6L727.7 704.1L725.9 703.2L706.5 658.2L784.1 631.4L801.1 578.2L789.5 558.5L789.6 550.6L794.4 537.7L798.6 529.6L796.5 524.3L801.4 522.6L805.5 523.0L810.5 521.1L808.8 517.2L804.2 517.0L805.5 514.0L804.3 508.0L805.8 505.7L805.1 499.9L808.8 496.6L811.3 502.7L820.5 496.6Z" fill="#f3e8d5" stroke="#d8c5a8" stroke-width="1" stroke-linejoin="round"></path><path d="M747.7 824.1L752.6 826.4L761.8 824.2L771.0 828.4L762.4 833.4L753.0 834.6L747.6 833.8L741.5 829.1L743.1 825.4L747.7 824.1ZM468.6 727.8L474.9 723.5L479.4 717.2L476.9 713.2L478.2 702.6L484.1 697.6L487.0 697.6L493.5 702.0L502.6 701.8L510.3 700.1L530.0 699.8L537.0 702.9L560.0 705.3L570.0 703.9L576.8 712.4L582.5 712.3L588.7 708.8L592.8 698.9L607.6 680.7L632.6 668.4L706.5 658.2L725.9 703.2L727.7 704.1L735.2 720.6L722.5 725.1L714.6 730.7L711.0 738.1L712.8 741.7L712.9 747.7L708.2 748.9L690.6 758.0L669.6 762.7L659.8 768.1L653.7 768.2L644.3 770.9L631.3 777.0L629.4 781.8L621.1 789.1L608.3 791.1L603.9 788.8L594.8 793.2L587.8 799.3L575.3 802.5L569.8 805.2L557.7 805.0L543.0 807.5L536.2 814.6L528.8 817.4L527.3 821.2L522.7 823.5L513.9 821.8L510.7 825.1L498.5 826.9L489.6 822.8L485.1 826.0L486.3 820.5L480.5 810.9L481.3 797.5L476.5 788.0L473.6 777.4L474.7 776.1L470.5 760.4L463.5 756.7L469.0 757.0L466.3 745.1L469.3 740.9L470.0 736.2L468.6 727.8Z" fill="#f3e8d5" stroke="#d8c5a8" stroke-width="1" stroke-linejoin="round"></path><path d="M588.8 385.3L565.4 382.4L573.7 372.6L580.4 358.1L586.8 354.4L595.0 354.2L602.1 357.1L604.0 363.2L608.1 369.3L602.6 368.9L595.8 374.9L603.0 374.0L606.0 375.3L607.6 384.6L612.0 391.8L613.6 392.3L614.7 398.0L594.8 398.2L593.0 396.0L588.8 385.3ZM606.3 356.6L612.4 362.9L609.4 368.3L604.6 362.6L607.6 360.4L606.3 356.6L606.2 356.5L606.3 356.6Z" fill="#f3e8d5" stroke="#d8c5a8" stroke-width="1" stroke-linejoin="round"></path><path d="M264.0 371.3L260.1 376.5L257.4 391.5L251.6 404.4L252.1 413.5L248.1 418.2L243.0 418.6L233.7 411.0L229.8 404.8L221.3 397.2L218.7 384.1L212.2 378.2L207.9 372.0L207.2 364.5L204.1 358.2L198.0 368.3L204.6 375.3L206.4 382.6L205.4 385.9L210.5 392.2L211.8 396.9L215.2 399.4L218.4 405.1L228.4 414.2L228.0 422.9L233.1 431.3L236.5 433.6L236.8 437.5L241.1 445.0L239.3 449.6L241.4 451.6L249.8 468.4L255.2 476.0L258.7 484.1L266.6 498.5L273.0 512.4L278.1 518.2L285.5 523.5L284.6 525.7L280.2 523.9L279.6 537.0L284.9 552.4L289.9 557.7L298.0 559.9L304.2 567.9L315.9 575.8L315.7 577.7L174.7 577.7L176.0 573.5L173.8 571.5L169.8 577.7L7.6 577.7L7.6 380.0L4.8 372.0L3.2 360.1L0.0 352.9L5.7 342.9L7.9 334.7L4.4 324.5L4.5 317.9L12.0 310.0L13.0 313.5L18.4 314.4L29.4 311.2L33.1 311.2L43.3 313.8L59.0 315.9L68.7 318.2L69.8 321.0L77.0 323.6L82.2 322.0L83.0 325.4L94.0 327.0L96.2 326.2L106.9 330.0L112.4 333.5L117.2 333.3L124.6 329.9L133.3 324.3L139.3 319.2L142.1 320.9L146.2 317.9L146.9 314.2L150.2 315.6L159.9 313.1L151.5 317.4L162.9 316.2L169.1 312.2L177.0 315.9L187.2 313.7L183.3 320.2L190.2 322.5L191.6 326.5L196.3 325.3L197.9 320.9L204.9 326.9L209.0 326.4L217.9 321.8L231.9 325.3L242.2 322.1L246.3 319.7L253.5 338.5L262.4 364.2L264.0 371.3Z" fill="#f3e8d5" stroke="#d8c5a8" stroke-width="1" stroke-linejoin="round"></path><path d="M278.1 326.1L280.6 323.3L277.3 322.1L277.1 321.4L277.9 319.4L281.1 319.3L281.4 306.9L280.5 298.5L281.8 293.4L281.5 281.8L286.5 278.9L290.1 279.7L294.7 285.4L297.4 285.1L302.5 289.1L314.0 291.2L346.1 271.7L364.6 260.8L372.0 286.0L370.0 286.5L371.7 291.3L376.6 290.0L378.1 293.2L374.3 296.8L369.5 300.4L317.6 314.7L331.2 328.5L344.1 342.9L335.1 348.1L330.9 357.1L312.4 360.7L305.2 371.2L293.3 379.8L265.6 375.2L266.8 370.1L265.8 369.4L270.7 352.6L270.5 344.8L278.1 326.1Z" fill="#f3e8d5" stroke="#d8c5a8" stroke-width="1" stroke-linejoin="round"></path><path d="M602.1 357.1L595.0 354.2L586.8 354.4L580.4 358.1L573.7 372.6L565.4 382.4L560.9 383.3L517.8 379.4L470.3 343.0L450.0 326.5L408.8 303.2L405.9 301.9L374.3 296.8L378.1 293.2L376.6 290.0L371.7 291.3L370.0 286.5L372.0 286.0L364.6 260.8L414.2 233.0L421.9 230.1L427.3 220.3L427.2 208.2L429.0 199.1L431.6 194.3L431.2 188.4L428.5 182.9L429.4 173.7L433.0 168.7L444.1 166.0L455.4 154.8L457.3 151.3L462.7 150.3L466.8 144.0L472.4 145.2L476.2 143.7L486.5 147.4L497.1 147.9L499.6 145.3L505.7 147.1L504.5 152.1L507.8 155.3L514.8 149.7L519.7 150.4L522.7 153.9L521.4 160.8L525.7 162.3L525.5 168.5L528.7 172.4L532.0 172.4L535.1 184.9L542.5 186.2L544.4 189.2L553.3 188.4L559.0 189.2L557.8 192.5L551.5 194.2L550.7 199.1L556.0 207.2L555.4 210.6L549.4 211.0L547.4 216.7L545.3 216.1L542.0 221.7L543.8 226.6L538.7 225.4L536.6 229.7L540.3 234.9L539.6 238.9L535.7 243.4L538.3 244.4L544.8 254.7L548.8 253.3L556.0 266.6L552.4 268.5L554.2 272.8L558.7 272.6L570.2 278.5L580.6 287.0L586.5 287.1L599.1 307.0L595.1 317.1L594.9 328.8L603.9 329.3L603.8 343.9L607.6 345.0L613.7 350.8L617.1 358.1L608.8 356.3L606.3 356.6L606.3 356.6L602.1 357.1Z" fill="#f3e8d5" stroke="#d8c5a8" stroke-width="1" stroke-linejoin="round"></path><path d="M676.1 502.9L677.2 498.9L675.3 493.5L674.7 482.4L678.4 481.4L678.5 474.3L682.3 467.0L687.6 464.1L691.5 469.8L696.0 471.7L696.4 475.5L693.3 481.7L694.6 487.8L696.4 488.2L696.3 497.2L692.5 504.7L686.6 506.2L680.6 507.7L676.1 502.9Z" fill="#f3e8d5" stroke="#d8c5a8" stroke-width="1" stroke-linejoin="round"></path><path d="M817.8 478.7L820.1 481.5L820.5 496.6L811.3 502.7L808.8 496.6L805.1 499.9L805.8 505.7L804.3 508.0L805.5 514.0L804.2 517.0L808.8 517.2L810.5 521.1L805.5 523.0L801.4 522.6L796.5 524.3L798.6 529.6L794.4 537.7L789.6 550.6L789.5 558.5L787.4 560.7L722.1 552.4L720.9 551.7L696.5 521.1L695.9 516.3L700.7 515.4L702.0 523.2L708.8 524.2L715.9 523.0L721.8 519.2L739.4 520.6L744.1 520.0L747.9 521.9L754.9 521.6L761.9 519.4L771.3 512.7L771.3 507.7L773.8 509.4L777.1 501.3L786.7 495.5L798.2 481.0L807.4 475.7L810.9 471.8L812.5 466.8L815.3 468.1L814.5 477.9L817.8 478.7ZM817.8 489.5L819.5 487.9L816.6 487.4L816.6 490.1L817.8 489.5Z" fill="#f3e8d5" stroke="#d8c5a8" stroke-width="1" stroke-linejoin="round"></path><path d="M286.5 278.9L290.0 273.1L286.7 261.8L288.2 259.8L293.8 254.6L290.8 253.0L294.1 247.9L302.3 246.7L299.7 245.3L308.5 236.9L304.1 228.3L301.4 228.3L302.9 224.5L292.1 223.7L289.4 215.8L291.8 207.7L290.7 201.3L286.0 197.1L288.7 191.8L287.6 188.6L290.5 186.6L296.4 189.5L297.9 185.6L302.1 184.3L302.5 177.5L310.0 177.4L306.6 169.6L309.9 159.7L317.8 161.9L319.1 165.3L330.2 165.4L349.5 157.4L358.2 159.5L361.8 162.9L376.7 164.7L390.3 162.3L401.3 158.1L414.7 151.6L419.5 151.0L427.5 152.7L434.7 152.4L448.4 149.4L453.5 145.0L457.2 147.9L457.3 151.3L455.4 154.8L444.1 166.0L433.0 168.7L429.4 173.7L428.5 182.9L431.2 188.4L431.6 194.3L429.0 199.1L427.2 208.2L427.3 220.3L421.9 230.1L414.2 233.0L364.6 260.8L346.1 271.7L314.0 291.2L302.5 289.1L297.4 285.1L294.7 285.4L290.1 279.7L286.5 278.9Z" fill="#f3e8d5" stroke="#d8c5a8" stroke-width="1" stroke-linejoin="round"></path><path d="M269.7 268.9L273.9 258.3L275.9 256.7L279.3 248.3L281.9 245.1L283.1 236.8L288.3 229.2L292.4 227.0L292.1 223.7L302.9 224.5L301.4 228.3L304.1 228.3L308.5 236.9L299.7 245.3L302.3 246.7L294.1 247.9L290.8 253.0L293.8 254.6L288.2 259.8L282.6 264.6L281.1 263.4L279.4 268.9L269.7 268.9Z" fill="#f3e8d5" stroke="#d8c5a8" stroke-width="1" stroke-linejoin="round"></path><path d="M230.5 212.5L236.6 213.5L241.6 211.9L243.6 214.6L234.5 213.5L230.9 218.7L221.5 222.3L206.5 223.7L200.0 220.7L196.7 210.7L200.9 211.8L203.6 208.3L207.2 208.1L210.4 211.7L219.6 208.8L225.9 208.8L226.7 213.5L228.6 212.3L230.4 212.5L230.5 212.5Z" fill="#f3e8d5" stroke="#d8c5a8" stroke-width="1" stroke-linejoin="round"></path><path d="M230.5 212.5L230.5 212.5L230.4 212.5L225.5 207.7L220.1 207.9L211.0 211.2L207.6 208.2L211.7 208.9L213.1 201.8L226.2 203.9L232.3 203.0L241.9 199.7L245.7 197.3L256.4 193.3L255.9 194.7L239.1 205.3L238.6 211.5L230.5 212.5Z" fill="#f3e8d5" stroke="#d8c5a8" stroke-width="1" stroke-linejoin="round"></path><path d="M519.7 150.4L520.6 145.9L514.6 141.4L515.3 133.3L509.7 129.2L505.6 128.6L505.6 125.8L511.8 115.2L507.4 113.4L507.0 99.5L503.5 95.0L504.7 90.4L501.9 88.8L501.5 82.7L510.4 81.7L511.8 73.6L514.6 71.6L520.8 75.4L529.8 88.4L534.8 89.9L537.1 94.7L554.9 98.9L561.8 97.1L565.4 98.3L574.1 89.8L578.1 89.0L580.2 85.4L585.1 83.3L599.4 74.1L604.8 75.1L612.3 83.3L606.6 85.8L607.1 89.3L611.3 93.5L605.0 96.3L603.8 100.2L608.8 102.9L611.4 106.8L614.2 106.3L619.2 113.0L626.1 111.8L627.7 127.1L632.7 136.1L640.7 139.9L653.5 141.2L659.1 142.7L663.6 150.0L667.6 153.6L683.4 162.4L704.6 167.0L727.2 162.3L745.6 158.0L751.1 160.1L759.2 159.9L759.6 156.1L756.5 144.4L763.6 145.0L779.1 139.3L780.9 132.0L788.0 126.3L795.6 122.6L802.9 121.3L810.0 122.9L818.2 122.4L821.8 117.2L829.7 116.8L837.4 119.3L842.0 116.9L845.5 125.8L854.3 127.2L867.0 131.6L871.9 135.9L875.6 134.1L883.0 134.0L897.3 139.9L897.8 145.2L903.0 149.2L914.6 153.8L922.9 165.3L941.9 165.1L944.8 167.2L943.9 172.2L945.7 180.7L947.5 197.5L942.8 205.3L941.7 218.9L938.6 224.1L932.2 227.6L937.1 233.4L930.7 233.7L926.6 239.9L927.3 253.1L931.1 255.4L936.9 255.7L935.3 259.8L928.8 267.2L929.0 271.7L935.6 293.1L934.1 299.4L935.3 314.6L957.1 317.8L961.4 327.6L960.3 333.5L935.9 361.0L947.2 373.6L952.5 382.9L954.7 388.8L963.0 397.9L975.2 401.4L980.7 406.6L985.0 405.8L984.9 413.2L986.9 427.1L986.5 434.6L996.0 433.6L1000.0 437.6L997.7 439.4L998.6 443.9L995.4 451.2L985.3 450.7L973.4 454.7L972.2 458.8L962.1 461.8L959.6 472.9L957.1 474.8L956.0 488.1L950.6 494.3L940.7 490.2L930.5 488.4L928.3 483.7L924.3 485.6L911.6 486.9L902.1 485.0L899.9 483.3L888.8 484.9L883.3 480.5L873.2 479.2L866.7 481.0L861.4 477.0L856.4 478.5L855.4 475.4L844.9 474.7L840.6 465.8L841.9 463.9L838.4 456.1L837.1 445.0L831.4 437.0L819.6 435.2L813.7 436.4L808.9 440.1L802.4 440.7L797.1 447.3L791.6 446.5L779.5 454.7L774.8 454.5L768.8 451.8L766.7 448.8L758.6 447.9L751.4 448.9L745.6 444.9L743.5 441.0L734.7 438.2L721.9 430.0L724.5 429.0L718.0 422.9L713.4 421.9L707.3 417.7L696.2 417.2L691.0 413.3L687.9 405.5L684.8 401.8L682.6 392.5L676.2 387.5L679.4 384.2L677.0 381.2L671.9 381.1L672.2 372.5L665.5 366.7L659.0 358.7L657.1 351.4L653.0 351.2L644.9 356.1L641.8 352.5L635.7 352.5L628.3 346.0L625.8 347.2L627.6 354.7L617.1 358.1L613.7 350.8L607.6 345.0L603.8 343.9L603.9 329.3L594.9 328.8L595.1 317.1L599.1 307.0L586.5 287.1L580.6 287.0L570.2 278.5L558.7 272.6L554.2 272.8L552.4 268.5L556.0 266.6L548.8 253.3L544.8 254.7L538.3 244.4L535.7 243.4L539.6 238.9L540.3 234.9L536.6 229.7L538.7 225.4L543.8 226.6L542.0 221.7L545.3 216.1L547.4 216.7L549.4 211.0L555.4 210.6L556.0 207.2L550.7 199.1L551.5 194.2L557.8 192.5L559.0 189.2L553.3 188.4L544.4 189.2L542.5 186.2L535.1 184.9L532.0 172.4L528.7 172.4L525.5 168.5L525.7 162.3L521.4 160.8L522.7 153.9L519.7 150.4ZM628.3 346.0L628.7 345.8L628.7 345.8L628.7 345.8L628.7 345.8L634.6 347.2L634.7 342.7L628.8 342.4L629.8 345.3L628.7 345.8L628.7 345.8L628.7 345.8L628.7 345.8L628.0 345.6L628.3 346.0ZM807.8 449.7L807.4 447.9L792.4 453.5L793.7 450.6L804.7 446.5L804.2 442.1L807.8 443.4L815.0 440.7L812.6 446.8L807.8 449.7Z" fill="#dd4a28" stroke="#a83217" stroke-width="1.5" stroke-linejoin="round"></path><path d="M246.3 319.7L252.5 313.5L259.4 301.6L262.8 292.2L265.5 276.9L268.6 275.6L269.7 268.9L279.4 268.9L281.1 263.4L282.6 264.6L288.2 259.8L286.7 261.8L290.0 273.1L286.5 278.9L281.5 281.8L281.8 293.4L280.5 298.5L281.4 306.9L279.3 307.9L277.1 314.0L277.9 319.4L277.1 321.4L277.3 322.1L276.3 323.7L278.1 326.1L270.5 344.8L270.7 352.6L265.8 369.4L264.6 371.3L264.0 371.3L262.4 364.2L253.5 338.5L246.3 319.7Z" fill="#dd4a28" stroke="#a83217" stroke-width="1.5" stroke-linejoin="round"></path><path d="M282.2 283.2L282.2 302.7L278.2 311.3L265.5 315.4L266.6 307.5L273.5 303.3L266.8 299.9L272.4 279.3Z" fill="#f3e8d5" stroke="#d8c5a8" stroke-width="1" stroke-linejoin="round"></path><path d="M246.9 319.8L246.1 316.4L249.4 313.4L253.4 309.2L255.6 309.8L253.7 312.8L248.8 318.3Z" fill="#f3e8d5" stroke="#d8c5a8" stroke-width="1" stroke-linejoin="round"></path><path d="M268.5 285.0L273.9 283.6L281.5 281.8L281.8 293.4L280.5 298.5L281.4 306.9L279.3 307.9L277.1 314.0L277.9 319.4L271.8 316.9L264.5 317.5L262.6 315.5L265.3 310.3L264.5 303.6L265.9 298.7L267.5 292.3L266.4 287.4Z" fill="#f3e8d5" stroke="#d8c5a8" stroke-width="1" stroke-linejoin="round"></path><path d="M245.8 321.3L244.4 318.1L247.9 315.5L251.9 311.4L253.8 311.7L252.2 314.9L248.4 319.3Z" fill="#f3e8d5" stroke="#d8c5a8" stroke-width="1" stroke-linejoin="round"></path></svg>