<svg xmlns="http://www.w3.org/2000/svg" viewBox="0 0 200 160">
<g transform="translate(100,80) scale(0.9) translate(-100,-80)">
<path d="M68 20 L36 20 L36 140 L68 140" fill="none" stroke="#dd8338" stroke-width="20" stroke-linecap="round" stroke-linejoin="round"></path>
<path d="M132 20 L164 20 L164 140 L132 140" fill="none" stroke="#dd8338" stroke-width="20" stroke-linecap="round" stroke-linejoin="round"></path>
<g transform="translate(88,72) scale(0.62)"><path d="M0,-16 A16,16 0 1,0 0,16 C-1.5,27 -7,35.5 -15,41 L-11,45.5 C3,37 14.5,23 16,2 A16,16 0 0,0 0,-16 Z" fill="#dd8338"></path></g>
<g transform="translate(115,72) scale(0.62)"><path d="M0,-16 A16,16 0 1,0 0,16 C-1.5,27 -7,35.5 -15,41 L-11,45.5 C3,37 14.5,23 16,2 A16,16 0 0,0 0,-16 Z" fill="#dd8338"></path></g>
</g>
</svg>